<?xml version="1.0" encoding="UTF-8"?>
<svg id="Camada_1" xmlns="http://www.w3.org/2000/svg" version="1.1" viewBox="0 0 1120.6 364.2">
  <!-- Generator: Adobe Illustrator 30.2.1, SVG Export Plug-In . SVG Version: 2.1.1 Build 1)  -->
  <defs>
    <style>
      .st0 {
        isolation: isolate;
      }

      .st1 {
        fill: #f4f4f4;
      }
    </style>
  </defs>
  <g>
    <polygon class="st1" points="155.4 138.5 103.2 168.6 103.2 123.4 155.4 93.3 207.6 123.4 207.6 168.6 155.4 138.5"/>
    <polygon class="st1" points="207.6 236.5 158.7 208.2 158.7 149.8 207.6 178.1 207.6 236.5"/>
    <polygon class="st1" points="152.1 212 207.6 244 161.9 270.4 103.2 236.5 103.2 178.1 152.1 149.8 152.1 212"/>
  </g>
  <g>
    <g class="st0">
      <g class="st0">
        <g class="st0">
          <path class="st1" d="M264.8,139.9c3-5.4,7.2-9.7,12.6-12.7,5.4-3,11.5-4.6,18.3-4.6s15.5,2.2,21.4,6.6c5.9,4.4,9.9,10.4,11.9,18h-18.8c-1.4-2.9-3.4-5.2-6-6.7-2.6-1.5-5.5-2.3-8.8-2.3-5.3,0-9.6,1.8-12.8,5.5-3.3,3.7-4.9,8.6-4.9,14.7s1.6,11.1,4.9,14.7c3.3,3.7,7.5,5.5,12.8,5.5s6.2-.8,8.8-2.3c2.6-1.5,4.6-3.8,6-6.7h18.8c-2,7.6-6,13.6-11.9,18-5.9,4.4-13.1,6.6-21.4,6.6s-12.9-1.5-18.3-4.6c-5.4-3-9.6-7.3-12.6-12.7-3-5.4-4.5-11.6-4.5-18.5s1.5-13.1,4.5-18.6Z"/>
          <path class="st1" d="M350.2,191c-4.4-2.3-7.8-5.7-10.3-10-2.5-4.3-3.8-9.4-3.8-15.2s1.3-10.8,3.8-15.2c2.5-4.4,6-7.7,10.4-10.1,4.4-2.3,9.4-3.5,14.8-3.5s10.4,1.2,14.8,3.5c4.4,2.3,7.9,5.7,10.4,10.1,2.5,4.4,3.8,9.4,3.8,15.2s-1.3,10.8-3.9,15.2c-2.6,4.4-6.1,7.7-10.5,10.1-4.4,2.3-9.4,3.5-14.9,3.5s-10.4-1.2-14.8-3.5ZM373.4,176.1c2.3-2.4,3.5-5.8,3.5-10.3s-1.1-7.9-3.4-10.3c-2.2-2.4-5-3.6-8.3-3.6s-6.1,1.2-8.3,3.6c-2.2,2.4-3.3,5.8-3.3,10.4s1.1,7.9,3.3,10.3c2.2,2.4,4.9,3.6,8.2,3.6s6.1-1.2,8.4-3.6Z"/>
          <path class="st1" d="M453.1,143.6c3.9,4.2,5.9,10.1,5.9,17.5v32.7h-17v-30.4c0-3.7-1-6.6-2.9-8.7-1.9-2.1-4.5-3.1-7.8-3.1s-5.9,1-7.8,3.1c-1.9,2.1-2.9,5-2.9,8.7v30.4h-17.1v-55.9h17.1v7.4c1.7-2.5,4.1-4.4,7-5.9,2.9-1.4,6.2-2.2,9.9-2.2,6.5,0,11.8,2.1,15.7,6.4Z"/>
          <path class="st1" d="M502.1,179.2v14.5h-8.7c-6.2,0-11.1-1.5-14.5-4.6-3.5-3-5.2-8-5.2-14.9v-22.2h-6.8v-14.2h6.8v-13.6h17.1v13.6h11.2v14.2h-11.2v22.4c0,1.7.4,2.9,1.2,3.6.8.7,2.1,1.1,4,1.1h6.1Z"/>
          <path class="st1" d="M536.3,139.9c3-1.8,6.3-2.7,10-2.7v18.1h-4.7c-4.3,0-7.5.9-9.6,2.8-2.1,1.8-3.2,5.1-3.2,9.7v26h-17.1v-55.9h17.1v9.3c2-3.1,4.5-5.5,7.5-7.3Z"/>
          <path class="st1" d="M565.2,191c-4.4-2.3-7.8-5.7-10.3-10-2.5-4.3-3.8-9.4-3.8-15.2s1.3-10.8,3.8-15.2c2.5-4.4,6-7.7,10.4-10.1,4.4-2.3,9.4-3.5,14.8-3.5s10.4,1.2,14.8,3.5c4.4,2.3,7.9,5.7,10.4,10.1,2.5,4.4,3.8,9.4,3.8,15.2s-1.3,10.8-3.9,15.2c-2.6,4.4-6.1,7.7-10.5,10.1-4.4,2.3-9.4,3.5-14.9,3.5s-10.4-1.2-14.8-3.5ZM588.3,176.1c2.3-2.4,3.5-5.8,3.5-10.3s-1.1-7.9-3.4-10.3c-2.2-2.4-5-3.6-8.3-3.6s-6.1,1.2-8.3,3.6c-2.2,2.4-3.3,5.8-3.3,10.4s1.1,7.9,3.3,10.3c2.2,2.4,4.9,3.6,8.2,3.6s6.1-1.2,8.4-3.6Z"/>
          <path class="st1" d="M635.5,119.6v74.1h-17.1v-74.1h17.1Z"/>
          <path class="st1" d="M665,119.6v74.1h-17.1v-74.1h17.1Z"/>
          <path class="st1" d="M677.3,150.6c2.2-4.3,5.1-7.7,8.9-10,3.7-2.3,7.9-3.5,12.5-3.5s7.4.8,10.4,2.4c3,1.6,5.3,3.7,6.9,6.3v-7.9h17.1v55.9h-17.1v-7.9c-1.7,2.6-4,4.7-7,6.3-3,1.6-6.4,2.4-10.4,2.4s-8.7-1.2-12.4-3.6c-3.7-2.4-6.7-5.7-8.9-10.1-2.2-4.4-3.3-9.4-3.3-15.2s1.1-10.8,3.3-15.1ZM712.4,155.7c-2.4-2.5-5.3-3.7-8.7-3.7s-6.3,1.2-8.7,3.7c-2.4,2.4-3.6,5.8-3.6,10.1s1.2,7.7,3.6,10.2,5.3,3.8,8.7,3.8,6.3-1.2,8.7-3.7c2.4-2.5,3.6-5.8,3.6-10.1s-1.2-7.6-3.6-10.1Z"/>
          <path class="st1" d="M745.3,150.6c2.2-4.3,5.1-7.7,8.9-10,3.7-2.3,7.9-3.5,12.5-3.5s7,.8,10.1,2.3c3,1.5,5.4,3.6,7.2,6.2v-26h17.1v74.1h-17.1v-8c-1.6,2.7-3.9,4.8-6.9,6.4-3,1.6-6.4,2.4-10.4,2.4s-8.8-1.2-12.5-3.6c-3.7-2.4-6.7-5.7-8.9-10.1-2.2-4.4-3.3-9.4-3.3-15.2s1.1-10.8,3.3-15.1ZM780.4,155.7c-2.4-2.5-5.3-3.7-8.7-3.7s-6.3,1.2-8.7,3.7c-2.4,2.4-3.6,5.8-3.6,10.1s1.2,7.7,3.6,10.2c2.4,2.5,5.3,3.8,8.7,3.8s6.3-1.2,8.7-3.7c2.4-2.5,3.6-5.8,3.6-10.1s-1.2-7.6-3.6-10.1Z"/>
          <path class="st1" d="M824.2,191c-4.4-2.3-7.8-5.7-10.3-10-2.5-4.3-3.8-9.4-3.8-15.2s1.3-10.8,3.8-15.2c2.5-4.4,6-7.7,10.4-10.1,4.4-2.3,9.4-3.5,14.8-3.5s10.4,1.2,14.8,3.5c4.4,2.3,7.9,5.7,10.4,10.1,2.5,4.4,3.8,9.4,3.8,15.2s-1.3,10.8-3.9,15.2c-2.6,4.4-6.1,7.7-10.5,10.1-4.4,2.3-9.4,3.5-14.9,3.5s-10.4-1.2-14.8-3.5ZM847.3,176.1c2.3-2.4,3.5-5.8,3.5-10.3s-1.1-7.9-3.4-10.3c-2.2-2.4-5-3.6-8.3-3.6s-6.1,1.2-8.3,3.6c-2.2,2.4-3.3,5.8-3.3,10.4s1.1,7.9,3.3,10.3c2.2,2.4,4.9,3.6,8.2,3.6s6.1-1.2,8.4-3.6Z"/>
          <path class="st1" d="M902,139.9c3-1.8,6.3-2.7,10-2.7v18.1h-4.7c-4.3,0-7.5.9-9.6,2.8-2.1,1.8-3.2,5.1-3.2,9.7v26h-17.1v-55.9h17.1v9.3c2-3.1,4.5-5.5,7.5-7.3Z"/>
          <path class="st1" d="M937.3,123.4v70.3h-17.1v-70.3h17.1Z"/>
          <path class="st1" d="M993.6,181.3h-26.3l-4.2,12.4h-17.9l25.5-70.3h19.8l25.5,70.3h-18.1l-4.2-12.4ZM989.2,168.1l-8.7-25.8-8.6,25.8h17.3Z"/>
        </g>
      </g>
    </g>
    <g class="st0">
      <g class="st0">
        <path class="st1" d="M303.5,220.6v24h-2.9v-24h2.9ZM308,244.5h-5.8v-2.6h5.6c2,0,3.6-.4,4.9-1.1,1.3-.8,2.3-1.8,2.9-3.2.6-1.4,1-3.1,1-5s-.3-3.6-.9-5c-.6-1.4-1.6-2.5-2.8-3.2-1.3-.8-2.8-1.1-4.7-1.1h-6v-2.6h6.2c2.3,0,4.3.5,6,1.4,1.7,1,2.9,2.3,3.8,4.1.9,1.8,1.3,3.9,1.3,6.4s-.5,4.6-1.4,6.4c-.9,1.8-2.2,3.2-3.9,4.1-1.7,1-3.8,1.4-6.2,1.4Z"/>
        <path class="st1" d="M331.9,244.9c-1.7,0-3.1-.4-4.3-1.1-1.2-.8-2.1-1.8-2.7-3.2-.6-1.3-1-2.9-1-4.6s.3-3.3,1-4.7c.7-1.4,1.6-2.4,2.7-3.2s2.5-1.2,4.1-1.2,2.2.2,3.1.6c.9.4,1.8,1,2.5,1.8.7.8,1.2,1.7,1.6,2.8.4,1.1.6,2.4.6,3.8v.9h-14v-2.4h12.4l-1.2.9c0-1.2-.2-2.2-.6-3.1-.4-.9-1-1.5-1.7-2-.7-.5-1.6-.7-2.7-.7s-1.9.2-2.7.7c-.8.5-1.3,1.2-1.7,2-.4.9-.6,1.8-.6,3v1.3c0,1.2.2,2.3.6,3.2.4.9,1,1.6,1.8,2.1.8.5,1.7.8,2.8.8s1.5-.1,2.1-.4,1.1-.6,1.5-1c.4-.4.7-1,.9-1.6l2.8.2c-.2,1.1-.7,2-1.4,2.8s-1.5,1.4-2.5,1.9c-1,.4-2.1.7-3.4.7Z"/>
        <path class="st1" d="M351.5,244.9c-1.6,0-3-.4-4.2-1.1-1.2-.8-2.1-1.8-2.8-3.2s-1-2.9-1-4.7.3-3.3,1-4.7,1.6-2.4,2.8-3.2c1.2-.8,2.6-1.2,4.2-1.2s1.8.1,2.6.4c.8.3,1.5.7,2.2,1.2s1.2,1.1,1.6,1.8c.4.7.7,1.5.8,2.3l-2.8.2c-.1-.5-.3-.9-.5-1.4-.2-.4-.5-.8-.9-1.1-.4-.3-.8-.5-1.3-.7s-1.1-.2-1.7-.2c-1.1,0-2,.3-2.8.8-.8.6-1.3,1.3-1.7,2.3-.4,1-.6,2.1-.6,3.4s.2,2.4.6,3.3c.4,1,1,1.7,1.7,2.3.8.5,1.7.8,2.8.8s1.2,0,1.7-.2c.5-.2.9-.4,1.3-.7.4-.3.7-.7.9-1.1s.4-.9.6-1.4l2.8.2c-.1.8-.4,1.6-.8,2.3-.4.7-.9,1.3-1.6,1.8-.6.5-1.4.9-2.2,1.2-.8.3-1.7.4-2.6.4Z"/>
        <path class="st1" d="M365.1,224.1c-.5,0-1-.2-1.3-.5-.4-.4-.6-.8-.6-1.3s.2-1,.6-1.3c.4-.4.8-.5,1.3-.5s1,.2,1.4.5c.4.4.6.8.6,1.3s-.2,1-.6,1.3c-.4.4-.8.5-1.3.5ZM363.7,244.5v-17.2h2.8v17.2h-2.8Z"/>
        <path class="st1" d="M378.3,244.9c-1.2,0-2.3-.2-3.3-.6-1-.4-1.8-1-2.4-1.8-.6-.8-1-1.8-1.1-3h2.7c.1.9.5,1.6,1.2,2.1.7.5,1.6.8,2.8.8s2.1-.2,2.8-.7c.7-.5,1-1.1,1-1.9s-.2-1.2-.7-1.6c-.5-.4-1.1-.7-1.9-.9l-2.8-.6c-1.6-.4-2.8-1-3.6-1.8s-1.2-1.8-1.2-3.1.3-1.8.8-2.6c.5-.8,1.3-1.3,2.2-1.8.9-.4,2-.6,3.2-.6s2.2.2,3.2.6c.9.4,1.7,1,2.2,1.8.6.8.9,1.7,1,2.8h-2.7c0-.7-.4-1.4-1-2-.6-.6-1.5-.9-2.6-.9s-1.9.3-2.5.8-1,1.1-1,1.9.2,1.2.7,1.6c.5.4,1.1.7,2,.9l2.7.6c1.6.4,2.8,1,3.6,1.7s1.2,1.8,1.2,3-.3,2-.9,2.7-1.4,1.4-2.4,1.8c-1,.4-2.1.6-3.4.6Z"/>
        <path class="st1" d="M397.1,244.9c-1.6,0-3-.4-4.2-1.1-1.2-.8-2.1-1.8-2.8-3.2s-1-2.9-1-4.7.3-3.3,1-4.7,1.6-2.4,2.8-3.2c1.2-.8,2.6-1.2,4.2-1.2s3,.4,4.2,1.2c1.2.8,2.1,1.8,2.8,3.2.7,1.4,1,2.9,1,4.7s-.3,3.3-1,4.7c-.7,1.3-1.6,2.4-2.8,3.2-1.2.8-2.6,1.1-4.2,1.1ZM397.1,242.4c1.1,0,2-.3,2.8-.8.8-.5,1.4-1.3,1.8-2.3.4-1,.6-2.1.6-3.3s-.2-2.4-.6-3.4c-.4-1-1-1.7-1.8-2.3-.8-.6-1.7-.8-2.8-.8s-2,.3-2.8.8c-.8.6-1.3,1.3-1.7,2.3-.4,1-.6,2.1-.6,3.4s.2,2.4.6,3.3c.4,1,1,1.7,1.7,2.3.8.5,1.7.8,2.8.8ZM399.2,224.1c-.4,0-.8,0-1.1-.2-.4-.1-.7-.3-1.1-.5-.3-.2-.7-.3-.9-.5-.3-.1-.5-.2-.7-.2s-.5.1-.6.4c-.1.3-.2.6-.2.9h-2c0-1,.3-1.7.7-2.4.4-.6,1-.9,1.9-.9s.8,0,1.1.2c.4.1.7.3,1,.5.3.2.6.3.9.5.3.1.6.2.8.2s.5-.1.6-.3c.1-.2.2-.5.3-1h1.9c0,1-.3,1.8-.7,2.4-.4.6-1,.9-1.8.9Z"/>
        <path class="st1" d="M417.3,244.9c-1.7,0-3.1-.4-4.3-1.1-1.2-.8-2.1-1.8-2.7-3.2-.6-1.3-1-2.9-1-4.6s.3-3.3,1-4.7c.7-1.4,1.6-2.4,2.7-3.2s2.5-1.2,4.1-1.2,2.2.2,3.1.6c.9.4,1.8,1,2.5,1.8.7.8,1.2,1.7,1.6,2.8.4,1.1.6,2.4.6,3.8v.9h-14v-2.4h12.4l-1.2.9c0-1.2-.2-2.2-.6-3.1-.4-.9-1-1.5-1.7-2-.7-.5-1.6-.7-2.7-.7s-1.9.2-2.7.7c-.8.5-1.3,1.2-1.7,2-.4.9-.6,1.8-.6,3v1.3c0,1.2.2,2.3.6,3.2.4.9,1,1.6,1.8,2.1.8.5,1.7.8,2.8.8s1.5-.1,2.1-.4,1.1-.6,1.5-1c.4-.4.7-1,.9-1.6l2.8.2c-.2,1.1-.7,2-1.4,2.8s-1.5,1.4-2.5,1.9c-1,.4-2.1.7-3.4.7Z"/>
        <path class="st1" d="M435.8,244.9c-1.2,0-2.3-.2-3.3-.6-1-.4-1.8-1-2.4-1.8-.6-.8-1-1.8-1.1-3h2.7c.1.9.5,1.6,1.2,2.1.7.5,1.6.8,2.8.8s2.1-.2,2.8-.7c.7-.5,1-1.1,1-1.9s-.2-1.2-.7-1.6c-.5-.4-1.1-.7-1.9-.9l-2.8-.6c-1.6-.4-2.8-1-3.6-1.8s-1.2-1.8-1.2-3.1.3-1.8.8-2.6c.5-.8,1.3-1.3,2.2-1.8.9-.4,2-.6,3.2-.6s2.2.2,3.2.6c.9.4,1.7,1,2.2,1.8.6.8.9,1.7,1,2.8h-2.7c0-.7-.4-1.4-1-2-.6-.6-1.5-.9-2.6-.9s-1.9.3-2.5.8-1,1.1-1,1.9.2,1.2.7,1.6c.5.4,1.1.7,2,.9l2.7.6c1.6.4,2.8,1,3.6,1.7s1.2,1.8,1.2,3-.3,2-.9,2.7-1.4,1.4-2.4,1.8c-1,.4-2.1.6-3.4.6Z"/>
        <path class="st1" d="M460.9,220.6v24h-2.9v-24h2.9Z"/>
        <path class="st1" d="M469.9,234.4v10.1h-2.8v-17.2h2.7v4.2h-.7c.6-1.6,1.3-2.7,2.3-3.4,1-.7,2.2-1.1,3.5-1.1s2.2.2,3.1.7c.9.5,1.7,1.2,2.2,2.2.6,1,.8,2.3.8,3.8v10.7h-2.8v-10.5c0-1.5-.4-2.6-1.1-3.3-.7-.8-1.7-1.1-3-1.1s-1.6.2-2.3.5c-.7.3-1.2.9-1.6,1.6-.4.7-.6,1.6-.6,2.7Z"/>
      </g>
      <g class="st0">
        <path class="st1" d="M494.5,227.3v2.4h-9.2v-2.4h9.2ZM488.2,222.8h2.8v17.5c0,.7.1,1.2.4,1.5.3.3.8.4,1.5.4s.5,0,.8,0c.3,0,.5,0,.8,0v2.4c-.2,0-.5,0-.8,0s-.7,0-1,0c-1.5,0-2.6-.3-3.3-1-.8-.7-1.1-1.7-1.1-3v-17.8Z"/>
      </g>
      <g class="st0">
        <path class="st1" d="M506,244.9c-1.7,0-3.1-.4-4.3-1.1-1.2-.8-2.1-1.8-2.7-3.2-.6-1.3-1-2.9-1-4.6s.3-3.3,1-4.7c.7-1.4,1.6-2.4,2.7-3.2s2.5-1.2,4.1-1.2,2.2.2,3.1.6c.9.4,1.8,1,2.5,1.8.7.8,1.2,1.7,1.6,2.8.4,1.1.6,2.4.6,3.8v.9h-14v-2.4h12.4l-1.2.9c0-1.2-.2-2.2-.6-3.1-.4-.9-1-1.5-1.7-2-.7-.5-1.6-.7-2.7-.7s-1.9.2-2.7.7c-.8.5-1.3,1.2-1.7,2-.4.9-.6,1.8-.6,3v1.3c0,1.2.2,2.3.6,3.2.4.9,1,1.6,1.8,2.1.8.5,1.7.8,2.8.8s1.5-.1,2.1-.4,1.1-.6,1.5-1c.4-.4.7-1,.9-1.6l2.8.2c-.2,1.1-.7,2-1.4,2.8s-1.5,1.4-2.5,1.9c-1,.4-2.1.7-3.4.7Z"/>
        <path class="st1" d="M521.2,220.6v24h-2.8v-24h2.8Z"/>
        <path class="st1" d="M528.6,224.1c-.5,0-1-.2-1.3-.5-.4-.4-.6-.8-.6-1.3s.2-1,.6-1.3c.4-.4.8-.5,1.3-.5s1,.2,1.4.5c.4.4.6.8.6,1.3s-.2,1-.6,1.3c-.4.4-.8.5-1.3.5ZM527.2,244.5v-17.2h2.8v17.2h-2.8Z"/>
        <path class="st1" d="M543,251.5c-1.3,0-2.5-.2-3.5-.6-1-.4-1.8-.9-2.5-1.6-.6-.7-1.1-1.6-1.3-2.6l2.7-.3c.2.5.5,1,.9,1.4.4.4.9.7,1.5.9.6.2,1.3.3,2.1.3,1.5,0,2.6-.4,3.5-1.2.9-.8,1.3-1.9,1.3-3.3v-2.8h0c-.4.6-.8,1.1-1.3,1.5-.5.4-1.1.8-1.8,1-.7.2-1.4.4-2.3.4-1.5,0-2.7-.4-3.9-1.1-1.1-.7-2-1.8-2.6-3.1s-.9-2.9-.9-4.6.3-3.3.9-4.7c.6-1.3,1.5-2.4,2.6-3.1,1.1-.7,2.4-1.1,3.9-1.1s1.6.1,2.3.4,1.3.6,1.8,1c.5.5,1,1,1.3,1.6h0v-2.7h2.7v17.3c0,1.7-.3,3-1,4-.7,1-1.6,1.7-2.8,2.2-1.1.5-2.4.7-3.7.7ZM542.9,242.2c1.1,0,2-.3,2.7-.8.8-.5,1.4-1.3,1.8-2.2.4-.9.6-2.1.6-3.4s-.2-2.4-.6-3.4c-.4-1-1-1.7-1.8-2.2-.8-.5-1.7-.8-2.7-.8s-1.9.3-2.6.8c-.8.5-1.3,1.2-1.8,2.2-.4.9-.6,2.1-.6,3.5s.2,2.5.6,3.4c.4.9,1,1.7,1.8,2.2.8.5,1.6.7,2.6.7Z"/>
        <path class="st1" d="M563.6,244.9c-1.7,0-3.1-.4-4.3-1.1-1.2-.8-2.1-1.8-2.7-3.2-.6-1.3-1-2.9-1-4.6s.3-3.3,1-4.7c.7-1.4,1.6-2.4,2.7-3.2s2.5-1.2,4.1-1.2,2.2.2,3.1.6c.9.4,1.8,1,2.5,1.8.7.8,1.2,1.7,1.6,2.8.4,1.1.6,2.4.6,3.8v.9h-14v-2.4h12.4l-1.2.9c0-1.2-.2-2.2-.6-3.1-.4-.9-1-1.5-1.7-2-.7-.5-1.6-.7-2.7-.7s-1.9.2-2.7.7-1.3,1.2-1.7,2c-.4.9-.6,1.8-.6,3v1.3c0,1.2.2,2.3.6,3.2.4.9,1,1.6,1.8,2.1.8.5,1.7.8,2.8.8s1.5-.1,2.1-.4c.6-.2,1.1-.6,1.5-1s.7-1,.9-1.6l2.8.2c-.2,1.1-.7,2-1.4,2.8s-1.5,1.4-2.5,1.9c-1,.4-2.1.7-3.4.7Z"/>
        <path class="st1" d="M578.9,234.4v10.1h-2.8v-17.2h2.7v4.2h-.7c.6-1.6,1.3-2.7,2.3-3.4,1-.7,2.2-1.1,3.5-1.1s2.2.2,3.1.7c.9.5,1.7,1.2,2.2,2.2.6,1,.8,2.3.8,3.8v10.7h-2.8v-10.5c0-1.5-.4-2.6-1.1-3.3s-1.7-1.1-3-1.1-1.6.2-2.3.5c-.7.3-1.2.9-1.6,1.6-.4.7-.6,1.6-.6,2.7Z"/>
      </g>
      <g class="st0">
        <path class="st1" d="M603.5,227.3v2.4h-9.2v-2.4h9.2ZM597.2,222.8h2.8v17.5c0,.7.1,1.2.4,1.5.3.3.8.4,1.5.4s.5,0,.8,0c.3,0,.5,0,.8,0v2.4c-.2,0-.5,0-.8,0-.3,0-.7,0-1,0-1.5,0-2.6-.3-3.3-1-.8-.7-1.1-1.7-1.1-3v-17.8Z"/>
      </g>
      <g class="st0">
        <path class="st1" d="M615,244.9c-1.7,0-3.1-.4-4.3-1.1-1.2-.8-2.1-1.8-2.7-3.2-.6-1.3-1-2.9-1-4.6s.3-3.3,1-4.7c.7-1.4,1.6-2.4,2.7-3.2s2.5-1.2,4.1-1.2,2.2.2,3.1.6c.9.4,1.8,1,2.5,1.8.7.8,1.2,1.7,1.6,2.8.4,1.1.6,2.4.6,3.8v.9h-14v-2.4h12.4l-1.2.9c0-1.2-.2-2.2-.6-3.1-.4-.9-1-1.5-1.7-2-.7-.5-1.6-.7-2.7-.7s-1.9.2-2.7.7-1.3,1.2-1.7,2c-.4.9-.6,1.8-.6,3v1.3c0,1.2.2,2.3.6,3.2s1,1.6,1.8,2.1c.8.5,1.7.8,2.8.8s1.5-.1,2.1-.4c.6-.2,1.1-.6,1.5-1s.7-1,.9-1.6l2.8.2c-.2,1.1-.7,2-1.4,2.8s-1.5,1.4-2.5,1.9c-1,.4-2.1.7-3.4.7Z"/>
        <path class="st1" d="M633.5,244.9c-1.2,0-2.3-.2-3.3-.6-1-.4-1.8-1-2.4-1.8-.6-.8-1-1.8-1.1-3h2.7c.1.9.5,1.6,1.2,2.1.7.5,1.6.8,2.8.8s2.1-.2,2.8-.7c.7-.5,1-1.1,1-1.9s-.2-1.2-.7-1.6c-.5-.4-1.1-.7-1.9-.9l-2.8-.6c-1.6-.4-2.8-1-3.6-1.8-.8-.8-1.2-1.8-1.2-3.1s.3-1.8.8-2.6c.5-.8,1.3-1.3,2.2-1.8.9-.4,2-.6,3.2-.6s2.2.2,3.2.6c.9.4,1.7,1,2.2,1.8s.9,1.7,1,2.8h-2.7c0-.7-.4-1.4-1-2-.6-.6-1.5-.9-2.6-.9s-1.9.3-2.5.8-1,1.1-1,1.9.2,1.2.7,1.6c.5.4,1.1.7,2,.9l2.7.6c1.6.4,2.8,1,3.6,1.7.8.8,1.2,1.8,1.2,3s-.3,2-.9,2.7c-.6.8-1.4,1.4-2.4,1.8s-2.1.6-3.4.6Z"/>
        <path class="st1" d="M646.9,244.8c-.6,0-1.1-.2-1.5-.6s-.6-.9-.6-1.4.2-1.1.6-1.5.9-.6,1.5-.6,1.1.2,1.4.6c.4.4.6.9.6,1.5s-.2,1.1-.6,1.4c-.4.4-.9.6-1.4.6Z"/>
        <path class="st1" d="M675.1,244.9c-2.2,0-4.1-.5-5.7-1.6s-2.9-2.5-3.9-4.3-1.4-4-1.4-6.4.5-4.6,1.4-6.5c.9-1.9,2.2-3.3,3.9-4.4,1.7-1,3.6-1.6,5.7-1.6s2.4.2,3.5.6,2.1.9,2.9,1.6c.9.7,1.6,1.6,2.2,2.6s1,2.1,1.2,3.4h-3c-.2-.9-.5-1.6-.9-2.3-.4-.7-.9-1.2-1.5-1.7-.6-.5-1.3-.8-2-1-.8-.2-1.5-.3-2.4-.3-1.6,0-3,.4-4.3,1.2-1.2.8-2.1,1.9-2.8,3.4-.7,1.4-1,3.1-1,5.1s.3,3.6,1,5.1c.7,1.4,1.6,2.6,2.8,3.4,1.2.8,2.6,1.2,4.3,1.2s1.6-.1,2.4-.3c.7-.2,1.4-.6,2-1,.6-.5,1.1-1,1.5-1.7.4-.7.7-1.4.9-2.3h3c-.2,1.2-.6,2.4-1.2,3.4s-1.3,1.8-2.2,2.5c-.9.7-1.9,1.2-3,1.6-1.1.4-2.3.6-3.5.6Z"/>
      </g>
      <g class="st0">
        <path class="st1" d="M690.2,244.5v-17.2h2.7v2.7h0c.3-.9.8-1.6,1.5-2.1.7-.5,1.6-.8,2.7-.8s.5,0,.7,0c.2,0,.4,0,.5,0v2.8c-.1,0-.3,0-.6-.1-.3,0-.7,0-1.1,0-.7,0-1.3.2-1.9.5-.6.3-1,.8-1.4,1.4-.3.6-.5,1.4-.5,2.3v10.6h-2.8Z"/>
      </g>
      <g class="st0">
        <path class="st1" d="M709.6,244.9c-1.7,0-3.1-.4-4.3-1.1-1.2-.8-2.1-1.8-2.7-3.2-.6-1.3-1-2.9-1-4.6s.3-3.3,1-4.7,1.6-2.4,2.7-3.2,2.5-1.2,4.1-1.2,2.2.2,3.1.6c.9.4,1.8,1,2.5,1.8.7.8,1.2,1.7,1.6,2.8.4,1.1.6,2.4.6,3.8v.9h-14v-2.4h12.4l-1.2.9c0-1.2-.2-2.2-.6-3.1-.4-.9-1-1.5-1.7-2-.7-.5-1.6-.7-2.7-.7s-1.9.2-2.7.7c-.8.5-1.3,1.2-1.7,2s-.6,1.8-.6,3v1.3c0,1.2.2,2.3.6,3.2.4.9,1,1.6,1.8,2.1.8.5,1.7.8,2.8.8s1.5-.1,2.1-.4c.6-.2,1.1-.6,1.5-1,.4-.4.7-1,.9-1.6l2.8.2c-.2,1.1-.7,2-1.4,2.8s-1.5,1.4-2.5,1.9c-1,.4-2.1.7-3.4.7Z"/>
        <path class="st1" d="M728.1,244.9c-1.2,0-2.3-.2-3.3-.6-1-.4-1.8-1-2.4-1.8-.6-.8-1-1.8-1.1-3h2.7c.1.9.5,1.6,1.2,2.1.7.5,1.6.8,2.8.8s2.1-.2,2.8-.7c.7-.5,1-1.1,1-1.9s-.2-1.2-.7-1.6c-.5-.4-1.1-.7-1.9-.9l-2.8-.6c-1.6-.4-2.8-1-3.6-1.8-.8-.8-1.2-1.8-1.2-3.1s.3-1.8.8-2.6c.5-.8,1.3-1.3,2.2-1.8.9-.4,2-.6,3.2-.6s2.2.2,3.2.6c.9.4,1.7,1,2.2,1.8.6.8.9,1.7,1,2.8h-2.7c0-.7-.4-1.4-1-2-.6-.6-1.5-.9-2.6-.9s-1.9.3-2.5.8-1,1.1-1,1.9.2,1.2.7,1.6c.5.4,1.1.7,2,.9l2.7.6c1.6.4,2.8,1,3.6,1.7.8.8,1.2,1.8,1.2,3s-.3,2-.9,2.7c-.6.8-1.4,1.4-2.4,1.8-1,.4-2.1.6-3.4.6Z"/>
        <path class="st1" d="M746.9,244.9c-1.6,0-3-.4-4.2-1.1-1.2-.8-2.1-1.8-2.8-3.2s-1-2.9-1-4.7.3-3.3,1-4.7,1.6-2.4,2.8-3.2c1.2-.8,2.6-1.2,4.2-1.2s1.8.1,2.6.4c.8.3,1.5.7,2.2,1.2s1.2,1.1,1.6,1.8c.4.7.7,1.5.8,2.3l-2.8.2c-.1-.5-.3-.9-.5-1.4s-.5-.8-.9-1.1c-.4-.3-.8-.5-1.3-.7s-1.1-.2-1.7-.2c-1.1,0-2,.3-2.8.8-.8.6-1.3,1.3-1.7,2.3-.4,1-.6,2.1-.6,3.4s.2,2.4.6,3.3c.4,1,1,1.7,1.7,2.3.8.5,1.7.8,2.8.8s1.2,0,1.7-.2c.5-.2.9-.4,1.3-.7.4-.3.7-.7.9-1.1.2-.4.4-.9.6-1.4l2.8.2c-.1.8-.4,1.6-.8,2.3-.4.7-.9,1.3-1.6,1.8-.6.5-1.4.9-2.2,1.2-.8.3-1.7.4-2.6.4Z"/>
        <path class="st1" d="M760.4,224.1c-.5,0-1-.2-1.3-.5-.4-.4-.6-.8-.6-1.3s.2-1,.6-1.3c.4-.4.8-.5,1.3-.5s1,.2,1.4.5c.4.4.6.8.6,1.3s-.2,1-.6,1.3c-.4.4-.8.5-1.3.5ZM759,244.5v-17.2h2.8v17.2h-2.8Z"/>
        <path class="st1" d="M767.7,244.5v-17.2h2.7v3.6h-.3c.3-.9.7-1.6,1.3-2.2.5-.6,1.2-1,1.9-1.3.7-.3,1.4-.5,2.2-.5,1.3,0,2.4.4,3.3,1.2.9.8,1.5,1.7,1.7,2.8h-.5c.2-.7.6-1.4,1.2-2,.5-.6,1.2-1.1,2-1.4.8-.3,1.6-.5,2.6-.5s2,.2,2.8.7c.9.5,1.5,1.1,2.1,2,.5.9.8,2.1.8,3.5v11.4h-2.8v-11.3c0-1.3-.4-2.2-1.1-2.8-.7-.6-1.6-.8-2.6-.8s-1.5.2-2.1.5c-.6.3-1.1.8-1.4,1.4-.3.6-.5,1.3-.5,2.1v11h-2.8v-11.6c0-1-.3-1.8-1-2.4-.7-.6-1.5-.9-2.6-.9s-1.4.2-2,.5c-.6.3-1.1.8-1.5,1.5-.4.7-.6,1.5-.6,2.4v10.6h-2.8Z"/>
        <path class="st1" d="M804.4,244.9c-1.7,0-3.1-.4-4.3-1.1-1.2-.8-2.1-1.8-2.7-3.2-.6-1.3-1-2.9-1-4.6s.3-3.3,1-4.7,1.6-2.4,2.7-3.2,2.5-1.2,4.1-1.2,2.2.2,3.1.6c.9.4,1.8,1,2.5,1.8.7.8,1.2,1.7,1.6,2.8.4,1.1.6,2.4.6,3.8v.9h-14v-2.4h12.4l-1.2.9c0-1.2-.2-2.2-.6-3.1-.4-.9-1-1.5-1.7-2-.7-.5-1.6-.7-2.7-.7s-1.9.2-2.7.7c-.8.5-1.3,1.2-1.7,2s-.6,1.8-.6,3v1.3c0,1.2.2,2.3.6,3.2.4.9,1,1.6,1.8,2.1.8.5,1.7.8,2.8.8s1.5-.1,2.1-.4c.6-.2,1.1-.6,1.5-1,.4-.4.7-1,.9-1.6l2.8.2c-.2,1.1-.7,2-1.4,2.8s-1.5,1.4-2.5,1.9c-1,.4-2.1.7-3.4.7Z"/>
        <path class="st1" d="M819.7,234.4v10.1h-2.8v-17.2h2.7v4.2h-.7c.6-1.6,1.3-2.7,2.3-3.4,1-.7,2.2-1.1,3.5-1.1s2.2.2,3.1.7c.9.5,1.7,1.2,2.2,2.2.6,1,.8,2.3.8,3.8v10.7h-2.8v-10.5c0-1.5-.4-2.6-1.1-3.3s-1.7-1.1-3-1.1-1.6.2-2.3.5c-.7.3-1.2.9-1.6,1.6-.4.7-.6,1.6-.6,2.7Z"/>
      </g>
      <g class="st0">
        <path class="st1" d="M844.3,227.3v2.4h-9.2v-2.4h9.2ZM838,222.8h2.8v17.5c0,.7.1,1.2.4,1.5.3.3.8.4,1.5.4s.5,0,.8,0c.3,0,.5,0,.8,0v2.4c-.2,0-.5,0-.8,0-.3,0-.7,0-1,0-1.5,0-2.6-.3-3.3-1-.8-.7-1.1-1.7-1.1-3v-17.8Z"/>
      </g>
      <g class="st0">
        <path class="st1" d="M855.7,244.9c-1.6,0-3-.4-4.2-1.1-1.2-.8-2.1-1.8-2.8-3.2s-1-2.9-1-4.7.3-3.3,1-4.7,1.6-2.4,2.8-3.2c1.2-.8,2.6-1.2,4.2-1.2s3,.4,4.2,1.2c1.2.8,2.1,1.8,2.8,3.2.7,1.4,1,2.9,1,4.7s-.3,3.3-1,4.7c-.7,1.3-1.6,2.4-2.8,3.2-1.2.8-2.6,1.1-4.2,1.1ZM855.7,242.4c1.1,0,2-.3,2.8-.8.8-.5,1.4-1.3,1.8-2.3.4-1,.6-2.1.6-3.3s-.2-2.4-.6-3.4c-.4-1-1-1.7-1.8-2.3-.8-.6-1.7-.8-2.8-.8s-2,.3-2.8.8c-.8.6-1.3,1.3-1.7,2.3-.4,1-.6,2.1-.6,3.4s.2,2.4.6,3.3c.4,1,1,1.7,1.7,2.3.8.5,1.7.8,2.8.8Z"/>
      </g>
      <g class="st0">
        <path class="st1" d="M879.2,244.5v-24h8.8c1.7,0,3.2.3,4.4.9,1.2.6,2.1,1.4,2.8,2.5s1,2.4,1,3.9-.3,2.8-1,3.8c-.7,1.1-1.6,1.9-2.9,2.5-1.2.6-2.7.9-4.4.9h-7v-2.6h7c1.1,0,2.1-.2,2.9-.6.8-.4,1.4-.9,1.8-1.6.4-.7.6-1.5.6-2.5s-.2-1.8-.6-2.5c-.4-.7-1-1.2-1.8-1.6-.8-.4-1.8-.6-2.9-.6h-5.7v21.4h-2.9ZM893.1,244.5l-5.8-10.8h3.3l5.9,10.8h-3.4Z"/>
      </g>
      <g class="st0">
        <path class="st1" d="M907.9,244.9c-1.7,0-3.1-.4-4.3-1.1-1.2-.8-2.1-1.8-2.7-3.2-.6-1.3-1-2.9-1-4.6s.3-3.3,1-4.7c.7-1.4,1.6-2.4,2.7-3.2s2.5-1.2,4.1-1.2,2.2.2,3.1.6c.9.4,1.8,1,2.5,1.8.7.8,1.2,1.7,1.6,2.8.4,1.1.6,2.4.6,3.8v.9h-14v-2.4h12.4l-1.2.9c0-1.2-.2-2.2-.6-3.1-.4-.9-1-1.5-1.7-2-.7-.5-1.6-.7-2.7-.7s-1.9.2-2.7.7-1.3,1.2-1.7,2c-.4.9-.6,1.8-.6,3v1.3c0,1.2.2,2.3.6,3.2s1,1.6,1.8,2.1c.8.5,1.7.8,2.8.8s1.5-.1,2.1-.4c.6-.2,1.1-.6,1.5-1s.7-1,.9-1.6l2.8.2c-.2,1.1-.7,2-1.4,2.8s-1.5,1.4-2.5,1.9c-1,.4-2.1.7-3.4.7Z"/>
      </g>
      <g class="st0">
        <path class="st1" d="M925.8,244.8c-1.1,0-2.1-.2-3-.6-.9-.4-1.6-1-2.1-1.8s-.8-1.7-.8-2.9.2-1.8.6-2.4c.4-.6.9-1.1,1.6-1.5s1.4-.6,2.2-.8c.8-.2,1.6-.3,2.5-.4,1.1-.2,1.9-.3,2.6-.3.6,0,1.1-.2,1.4-.4.3-.2.4-.5.4-.9h0c0-.8-.1-1.4-.4-1.9s-.7-.9-1.3-1.1c-.6-.3-1.2-.4-2.1-.4s-1.5.1-2.1.4c-.6.3-1.1.6-1.5,1.1-.4.4-.6.9-.7,1.4l-2.8-.2c.1-1.1.5-2,1.2-2.7s1.5-1.4,2.5-1.8,2.1-.6,3.4-.6,1.7.1,2.5.4c.8.2,1.5.6,2.1,1.1.6.5,1.1,1.1,1.4,1.8s.5,1.6.5,2.5v11.7h-2.7v-2.4h0c-.2.4-.5.8-.9,1.2-.4.4-1,.8-1.6,1-.7.3-1.5.4-2.6.4ZM926.2,242.4c1.1,0,2-.2,2.7-.6s1.2-.9,1.6-1.6c.3-.6.5-1.3.5-2.1v-2.2c-.1.1-.3.2-.6.3-.3,0-.7.2-1.1.3-.4,0-.9.2-1.4.2s-.9.1-1.4.2c-.7,0-1.3.2-1.9.4-.6.2-1.1.5-1.4.9-.4.4-.5.9-.5,1.6s.1,1,.4,1.4c.3.4.7.7,1.2.9.5.2,1.2.3,1.9.3Z"/>
        <path class="st1" d="M942.4,220.6v24h-2.8v-24h2.8Z"/>
        <path class="st1" d="M950.1,244.8c-.6,0-1.1-.2-1.5-.6s-.6-.9-.6-1.4.2-1.1.6-1.5.9-.6,1.5-.6,1.1.2,1.4.6c.4.4.6.9.6,1.5s-.2,1.1-.6,1.4c-.4.4-.9.6-1.4.6Z"/>
      </g>
    </g>
  </g>
</svg>