<?xml version="1.0" encoding="UTF-8"?><svg id="Camada_1" xmlns="http://www.w3.org/2000/svg" viewBox="0 0 1080 310.17"><defs><style>.cls-1{fill:#9ca3af;font-family:Inter28pt-Regular, 'Inter 28pt';font-size:32.95px;}.cls-1,.cls-2,.cls-3{isolation:isolate;}.cls-4{fill:#0d767b;}.cls-5{fill:#f86a15;}.cls-6{fill:#f97316;}.cls-7{letter-spacing:.03em;}.cls-8{letter-spacing:.04em;}.cls-9{letter-spacing:.04em;}.cls-10{fill:#0d9488;}.cls-3{font-family:Poppins-Bold, Poppins;font-size:100.2px;font-weight:700;}.cls-11{letter-spacing:.05em;}.cls-12{letter-spacing:.06em;}.cls-13{letter-spacing:.05em;}.cls-14{letter-spacing:.04em;}</style></defs><polygon class="cls-4" points="140.51 93.8 78.84 129.49 78.84 82.76 140.51 47.06 194.45 78.35 195.18 125.43 140.51 93.8"/><polygon class="cls-4" points="192.58 203.96 144.38 231.79 78.86 194.05 78.84 138.43 125.18 111.66 125.18 166.23 192.58 203.96"/><polygon class="cls-5" points="194.54 189.49 140.6 157.98 140.6 107.16 194.54 138.43 194.54 189.49"/><g class="cls-2"><text class="cls-3" transform="translate(238.66 152.01)"><tspan class="cls-10" x="0" y="0">Controllador</tspan><tspan class="cls-6" x="657" y="0">IA</tspan></text></g><text class="cls-1" transform="translate(279.7 199.4)"><tspan class="cls-13" x="0" y="0">Decisões In</tspan><tspan class="cls-9" x="186.96" y="0">t</tspan><tspan class="cls-11" x="198.65" y="0">eligen</tspan><tspan class="cls-9" x="295.97" y="0">t</tspan><tspan class="cls-11" x="307.66" y="0">es. C</tspan><tspan class="cls-8" x="390" y="0">r</tspan><tspan class="cls-11" x="402.3" y="0">escimen</tspan><tspan class="cls-14" x="536.76" y="0">t</tspan><tspan class="cls-11" x="548.45" y="0">o </tspan><tspan class="cls-7" x="578.67" y="0">R</tspan><tspan class="cls-12" x="600.62" y="0">e</tspan><tspan class="cls-11" x="620.47" y="0">al.</tspan></text></svg>